#!OML:ASF H:\Terrain\Patient Classification 1\Walking\liu\liu.ASF
:FULLY-SPECIFIED
:DEGREES
17
root 0.0181 15.9642 3.9278 8.63193 0.1154 -5.37395
lowerback -3.6374 1.60014 1.93504
upperback 0.0422968 1.97443 3.60539
thorax 2.02137 0.987736 2.72916
lowerneck -22.3687 -4.61146 -11.1794
upperneck 21.1412 -5.42637 10.7905
head 11.1747 -2.05638 4.96079
rclavicle -1.44119e-014 -2.82274e-014
rhumerus -26.6528 25.8183 -85.3742
rradius 46.9382
rwrist -21.324
rhand -31.452 -23.2326
rfingers 7.12502
rthumb -4.71961 -53.16
lclavicle -1.44119e-014 -2.82274e-014
lhumerus -53.6664 -6.55645 92.5297
lradius 25.8765
lwrist 4.13918
lhand -10.4996 -16.8542
lfingers 7.12502
lthumb 15.5025 12.5443
rfemur 0.609555 4.28022 30.8259
rtibia 15.5631
rfoot -16.1454 6.37192
rtoes -1.8401
lfemur -40.6435 4.60289 -15.2665
ltibia 23.2688
lfoot -10.1944 10.8606
ltoes -8.47844
18
root 0.0181 15.9511 4.1733 8.65957 0.1154 -5.77489
lowerback -3.48822 1.6713 2.13389
upperback 0.0533962 2.06379 3.7644
thorax 1.94754 1.03351 2.78188
lowerneck -23.046 -4.50646 -10.9973
upperneck 21.7933 -5.26692 10.5977
head 11.5148 -1.9761 4.90699
rclavicle -9.0944e-015 -2.66371e-014
rhumerus -26.0085 26.083 -85.1125
rradius 47.0195
rwrist -21.1597
rhand -31.3221 -22.8449
rfingers 7.12502
rthumb -4.59415 -52.7751
lclavicle -9.0944e-015 -2.66371e-014
lhumerus -54.1595 -6.01176 92.1179
lradius 25.7736
lwrist 3.75429
lhand -10.277 -17.3695
lfingers 7.12502
lthumb 15.7169 12.0123
rfemur 1.71445 4.65973 31.2433
rtibia 14.4873
rfoot -15.3382 6.07043
rtoes -4.1821
lfemur -40.445 3.49723 -13.9508
ltibia 20.9343
lfoot -10.357 10.8839
ltoes -9.46532
19
root 0.0181 15.9318 4.4188 8.85998 0.1154 -6.52163
lowerback -3.59074 1.6792 2.96264
upperback 0.0776787 2.02936 3.90082
thorax 2.05556 1.02341 2.46175
lowerneck -22.9003 -4.30794 -10.7045
upperneck 21.6688 -5.14626 10.7754
head 11.4217 -1.87795 4.94151
rclavicle 1.59525e-014 -1.31198e-014
rhumerus -25.444 26.3879 -84.9886
rradius 47.2313
rwrist -21.2737
rhand -31.6483 -22.9557
rfingers 7.12502
rthumb -4.90918 -52.8788
lclavicle 1.59525e-014 -1.31198e-014
lhumerus -54.5424 -5.59803 91.5656
lradius 25.6777
lwrist 3.3649
lhand -9.61608 -18.2016
lfingers 7.12502
lthumb 16.3533 11.129
rfemur 2.62606 4.312 31.8769
rtibia 13.4593
rfoot -14.3554 6.35284
rtoes -5.89758
lfemur -40.5086 2.06096 -12.2062
ltibia 18.8601
lfoot -10.6896 11.2033
ltoes -11.7985
20
root 0.0182 15.925 4.6643 8.84315 0.1154 -7.02909
lowerback -3.48483 1.71852 3.70428
upperback 0.0808782 2.05516 3.94571
thorax 2.02385 1.04282 2.09192
lowerneck -22.5717 -4.33985 -10.8087
upperneck 21.524 -5.2313 10.973
head 11.3256 -1.90969 5.01477
rclavicle -2.13197e-014 -2.42517e-014
rhumerus -25.099 26.4237 -84.8511
rradius 47.3408
rwrist -21.205
rhand -31.1516 -22.0495
rfingers 7.12502
rthumb -4.42957 -51.9832
lclavicle -2.13197e-014 -2.42517e-014
lhumerus -54.9159 -5.00668 90.8644
lradius 25.3879
lwrist 2.92413
lhand -9.33812 -18.3843
lfingers 7.12502
lthumb 16.6209 10.924
rfemur 3.66712 3.56099 32.1188
rtibia 12.7612
rfoot -13.5328 6.99285
rtoes -4.71049
lfemur -40.1378 0.750281 -10.866
ltibia 16.8226
lfoot -10.6202 11.6168
ltoes -13.5731
21
root 0.0182 15.9348 4.9098 8.63734 0.1154 -6.58266
lowerback -3.52137 1.81913 3.24582
upperback 0.29032 2.19894 3.79717
thorax 2.24721 1.11272 2.20864
lowerneck -22.5269 -4.48652 -11.2704
upperneck 21.3306 -5.33338 11.2272
head 11.2807 -1.96492 5.16724
rclavicle -3.926e-014 -4.81059e-014
rhumerus -24.481 26.6131 -84.6601
rradius 47.5576
rwrist -21.3857
rhand -31.8413 -23.9469
rfingers 7.12502
rthumb -5.09547 -53.8657
lclavicle -3.926e-014 -4.81059e-014
lhumerus -54.8643 -4.17819 90.0811
lradius 24.8696
lwrist 2.40297
lhand -9.32264 -18.2319
lfingers 7.12502
lthumb 16.6358 11.0751
rfemur 4.99473 3.56846 31.3806
rtibia 11.9822
rfoot -12.947 7.21403
rtoes -5.36617
lfemur -39.4659 -0.57008 -10.4937
ltibia 15.1426
lfoot -10.1851 12.5698
ltoes -12.3335
